<?xml version="1.0" encoding="UTF-8" standalone="no"?>
<svg width="56px" height="56px" viewBox="0 0 56 56" version="1.1" xmlns="http://www.w3.org/2000/svg" xmlns:xlink="http://www.w3.org/1999/xlink">
    <!-- Generator: Sketch 40.1 (33804) - http://www.bohemiancoding.com/sketch -->
    <title>Button/Rounded small +</title>
    <desc>Created with Sketch.</desc>
    <defs></defs>
    <g id="Clean-try" stroke="none" stroke-width="1" fill="none" fill-rule="evenodd">
        <g id="Рекомендации" transform="translate(-521.000000, -352.000000)" fill="#FFFFFF">
            <g id="Group-3-Copy-3" transform="translate(0.000000, 273.000000)">
                <g id="Group-7" transform="translate(24.000000, 79.000000)">
                    <g id="Group" transform="translate(346.000000, 0.000000)">
                        <g id="Button/Rounded-small-+" transform="translate(152.000000, 1.000000)">
                            <path d="M28.4660817,28.4660817 L35.71858,28.4660817 C36.732842,28.4660817 37.5550639,27.6438599 37.5550639,26.6295978 C37.5550639,25.6153358 36.732842,24.793114 35.71858,24.793114 L28.4660817,24.793114 L28.4660817,17.9079124 C28.4660817,16.8936504 27.6438599,16.0714286 26.6295978,16.0714286 C25.6153358,16.0714286 24.793114,16.8936504 24.793114,17.9079124 L24.793114,24.793114 L17.9079124,24.793114 C16.8936504,24.793114 16.0714286,25.6153358 16.0714286,26.6295978 C16.0714286,27.6438599 16.8936504,28.4660817 17.9079124,28.4660817 L24.793114,28.4660817 L24.793114,35.71858 C24.793114,36.732842 25.6153358,37.5550639 26.6295978,37.5550639 C27.6438599,37.5550639 28.4660817,36.732842 28.4660817,35.71858 L28.4660817,28.4660817 Z M0,27 C0,12.0883118 12.0883118,0 27,0 C41.9116882,0 54,12.0883118 54,27 C54,41.9116882 41.9116882,54 27,54 C12.0883118,54 0,41.9116882 0,27 Z" id="Combined-Shape"></path>
                        </g>
                    </g>
                </g>
            </g>
        </g>
    </g>
</svg>